<?xml version="1.0" encoding="utf-8"?>
<!-- Generator: Adobe Illustrator 23.0.5, SVG Export Plug-In . SVG Version: 6.00 Build 0)  -->
<svg version="1.1" id="Layer_1" xmlns="http://www.w3.org/2000/svg" xmlns:xlink="http://www.w3.org/1999/xlink" x="0px" y="0px"
	 viewBox="0 0 2500 870" style="enable-background:new 0 0 2500 870;" xml:space="preserve">
<style type="text/css">
	.st0{opacity:0.79;}
	.st1{fill:#FFFFFF;}
	.st2{opacity:0.79;fill:#FFFFFF;}
	.st3{font-family:'Poppins-Bold';}
	.st4{font-size:313.8615px;}
</style>
<g class="st0">
	<path class="st1" d="M564.4,95.1c95.8-3,177.9,83.6,176.4,181.9C740,333,718.4,377.2,680.7,417c-65.6,69.2-129.3,140.1-194.1,210
		c-21.6,23.3-42.9,47.3-71.5,62.9c-90.9,49.3-204.3,10.1-246.1-87.2c-31.2-72.4-21-141.5,31.6-200.3
		c74.7-83.5,152-164.7,228.6-246.6c28.6-30.6,62.7-52,104.9-58.1C544,96.2,554.2,95.9,564.4,95.1z M566,495.3c1.8-3,2.8-5.6,4.6-7.5
		c31.2-33.4,61.6-67.6,94-99.7c33.7-33.4,47.8-73.3,44.9-119.6c-4-63.9-34.5-111.2-94.7-134.4c-57.7-22.2-111.4-10.2-155.5,33.3
		c-36.9,36.5-71.3,75.5-107,113.3c-3.8,4.1-3.7,6.8,0.3,10.6c8.2,7.6,15.9,15.8,23.9,23.5c43,41.6,85.9,83.3,129.1,124.7
		C524.7,457.7,544.4,475.4,566,495.3z M245.5,516.6c1.2-0.5,2.4-0.9,3.6-1.4c-2.4-3-4.8-6-7.1-8.9c-2.9,2.6-6,4.9-8.6,7.8
		c-0.9,1-1,3.2-0.9,4.7c1.1,14,1.7,28,3.8,41.8c0.5,3.4,5.9,6.1,9.1,9.1c1.5-4.2,4.6-8.4,4.3-12.5C249,543.7,247,530.2,245.5,516.6z
		 M275.7,605.2c0.2-7.7-11.5-20.6-16.7-19.5c-2.7,0.6-6.8,6.2-6.6,6.4c5.3,6.2,10.8,12.2,16.9,17.5
		C269.8,610.2,274.2,606.3,275.7,605.2z M253.6,492.3c5.5-7.5,10-13.1,13.5-19.1c0.4-0.7-4.3-4.4-6.6-6.7
		c-5,5.5-10.2,10.9-14.7,16.8C245.4,483.8,249.6,487.8,253.6,492.3z"/>
</g>
<text transform="matrix(1 0 0 1 749.2908 553.1436)" class="st2 st3 st4">PUMP.FUN</text>
</svg>
