<?xml version="1.0" encoding="utf-8"?>
<!-- Generator: Adobe Illustrator 23.0.5, SVG Export Plug-In . SVG Version: 6.00 Build 0)  -->
<svg version="1.1" id="Layer_1" xmlns="http://www.w3.org/2000/svg" xmlns:xlink="http://www.w3.org/1999/xlink" x="0px" y="0px"
	 viewBox="0 0 2500 870" style="enable-background:new 0 0 2500 870;" xml:space="preserve">
<style type="text/css">
	.st0{opacity:0.85;}
	.st1{fill:#FFFFFF;}
	.st2{font-family:'Poppins-SemiBoldItalic';}
	.st3{font-size:253.0244px;}
	.st4{font-size:141.823px;}
</style>
<g class="st0">
	<g>
		<path class="st1" d="M794.7,646.9c39.7,3.2,78.1,6.4,116.4,9.5c0,1,0,2,0,3c-11.3,1.6-22.5,3.1-33.8,4.7c0,1.4,0,2.9,0,4.3
			c17.3,1,34.6,2,51.9,3c0,0.6-0.1,1.1-0.1,1.7c-16.1,1.8-32.2,3.6-48.3,5.3c0,1.5,0,3-0.1,4.6c6.4,1.1,12.9,2.1,19.3,3.2
			c0,0.2,0,0.4,0,0.7c-31.2,0-62.3,0-93.5,0c-26.2,0-52,0.2-78,7.2c-36,9.8-73.2,8.1-109.3,0c-33.8-7.6-67.7-7.3-101.8-7.2
			c-13.1,0-26.2,0-39.5-1.2c13-2.7,25.9-5.5,38.9-8.2c0-1.4,0.1-2.8,0.1-4.1c-12.6-1.2-25.2-2.4-37.7-3.6c0-0.7,0-1.4,0-2.1
			c26.6-4.4,53.3-8.7,79.9-13.1c0.2-1.4,0.4-2.8,0.5-4.2c-8-4.1-15.7-8.6-23.9-12.1c-27.4-11.7-51.5-27.3-69.7-51.8
			c-5.7-7.7-15.7-12.2-23.9-17.9c-4.5-3.2-9.4-6-14.4-9.2c4.7-4,17.6,6.8,13.5-7.9c16.9,5.3,34.4,10.7,51.9,16.1
			c0.5-1.2,0.9-2.4,1.4-3.6c-13.5-10.6-27-21.1-40.5-31.7c0.7-1,1.5-2,2.2-3c30.4,8.2,60.6,24.9,91.5,4.5c0.1-1.7,0.2-3.3,0.4-5
			c-10.3-1-20.6-2-32.6-3.2c56-45.2,105.5-97.5,177.1-115.9c13-3.3,26.6-4.6,40-5.7c26-2.2,38.5-18.5,31.3-43.8
			c-4.8-16.8-11.8-32.9-18-49.3c-17.1-44.9-17.3-88.9,6.5-131.7c19.1-34.4,54.3-52,92.4-45.9c27.5,4.4,44.1,23.2,54.9,46.4
			c15.1,32.5,37.9,55.1,72.3,65.9c0.8,0.3,1.8,0.5,2.4,1c4.1,3.8,8.1,7.6,12.1,11.4c-5.4,1.2-11,3.9-16.3,3.3
			c-17.4-1.7-34.7-4.5-52-7.2c-5.1-0.8-10.9-1.5-15-4.3c-22.6-15.6-48-10.7-72.3-9.3c-27.7,1.5-42.3,21.8-32.3,47.4
			c8.9,22.8,23.9,43.3,37.2,64.2c10.1,15.8,22.8,30,32.7,45.9c28.4,45.6,27.5,93.9,9.4,142.5c-14.9,40-42.1,71.3-74.6,98.2
			C800.5,641.2,797.8,644,794.7,646.9z M829.3,449.1c-0.7,2.6-1.6,4.3-1.5,5.9c2.4,31.9-14.3,55.3-35.3,76
			c-48.7,48.1-106.7,64.4-173.5,48.7c-5-1.2-10.2-1.7-15.3-2.5c-0.4,1.4-0.9,2.8-1.3,4.2c11.4,5.6,22.8,11.2,36.8,18.1
			c-11.6,1.6-20.8,2.9-30.3,4.2c0.8,2.6,0.8,4.2,1.6,5c3,3.2,6.1,6.3,9.4,9.1c32,26.2,66.2,40.8,107.7,22.7
			c38.9-17,71.7-42,98.7-74.4c17.5-21,32-44,31.1-73.2C856.8,471.8,846.8,455.1,829.3,449.1z M616.1,469c29-16.9,56.8-36.2,96-28.2
			C691.6,418,632.9,437.1,616.1,469z M853.5,164.8c8.9,8.4,17.6,16.6,26.1,24.5C882.1,171.2,869.7,159.8,853.5,164.8z"/>
	</g>
	<text transform="matrix(1 0 0 1 904.5147 491.2151)" class="st1 st2 st3">The Duck </text>
	<text transform="matrix(1 0 0 1 925.981 617.4299)" class="st1 st2 st4">Capital Investers</text>
</g>
</svg>
