<?xml version="1.0" encoding="utf-8"?>
<!-- Generator: Adobe Illustrator 23.0.5, SVG Export Plug-In . SVG Version: 6.00 Build 0)  -->
<svg version="1.1" id="Layer_1" xmlns="http://www.w3.org/2000/svg" xmlns:xlink="http://www.w3.org/1999/xlink" x="0px" y="0px"
	 viewBox="0 0 2500 870" style="enable-background:new 0 0 2500 870;" xml:space="preserve">
<style type="text/css">
	.st0{opacity:0.81;}
	.st1{fill:#FFFFFF;}
	.st2{font-family:'Poppins-Bold';}
	.st3{font-size:326.7701px;}
</style>
<g class="st0">
	<g>
		<path class="st1" d="M996.9,434.2c-0.1-3.1-0.2-6.1-0.5-9.2c-0.6-6.1-1.1-12.2-1.9-18.3c-1.5-11.5-3.8-22.8-6.6-33.9
			c-11.6-45.1-32.1-85.1-61.5-119.9c-22.5-26.6-48.7-48.1-78.5-64.5c-22-12.1-45-20.9-69.2-26.3c-8.1-1.8-16.2-3.2-24.5-4.3
			c-8.1-1-16.2-1.7-24.3-1.9c-1.1,0-2.2,0.2-3.3-0.4h-10.2c-0.9,0.5-1.9,0.3-2.8,0.4c-5.4,0.2-10.8,0.5-16.1,1
			c-8,0.7-16,1.8-23.9,3.3c-13,2.4-25.9,5.8-38.4,10.3c-43.1,15.3-80.4,40.3-112,75c-23.8,26.2-42.4,56.1-55.8,89.6
			c-7.6,19-13.2,38.7-16.9,59.1c-1.5,8.4-2.7,16.9-3.5,25.5c-0.4,4.1-0.7,8.3-0.9,12.5c-0.3,6.4-0.5,12.7-0.7,19.1
			c0,1.7,0.2,3.5,0.2,5.2c0.2,4.2,0.3,8.3,0.5,12.5c0.5,9.9,1.6,19.8,3.1,29.6c2.4,15.3,5.8,30.4,10.5,45.1
			c14.4,45.6,37.9,85.2,70.4,118.6c31,31.8,67,54.7,108,68.7c12.5,4.3,25.3,7.5,38.3,9.8c5.7,1,11.4,1.8,17.1,2.4
			c5.4,0.6,10.9,1.1,16.3,1.2c4.9,0.2,9.7,0.2,14.6,0.2c9.2,0,18.5-0.6,27.6-1.7c8.9-1,17.7-2.6,26.4-4.5
			c22.9-5.1,44.8-13.2,65.7-24.3c28.8-15.3,54.4-35.3,76.7-60.2c32.4-36.2,54.8-78.5,67.1-126.8c2.8-10.9,5-22,6.5-33.3
			c0.8-6.1,1.4-12.2,1.9-18.3c0.3-3.1,0.3-6.1,0.5-9.2c0-1,0-2.1,0.4-3v-26C996.9,436.2,996.9,435.2,996.9,434.2z M721.2,716.1
			C583.5,716,471.4,596.3,472.1,448.7c0.7-146.3,112.4-264.7,249.3-264.5c138-0.3,250.8,120.2,249.4,268.7
			C969.5,598.4,858.2,716.3,721.2,716.1z"/>
		<path class="st1" d="M728.5,194c-129.8-3.5-236.8,103.2-244.9,238.9c-1.9,32.4,1.7,64.1,11.1,95c9.6,31.5,24.3,59.9,44.2,85.2
			c19.9,25.4,43.6,45.8,70.9,61.5c10.4,6,24.8,12.7,27.7,13.1c-0.1-0.5-0.1-1.1-0.2-1.6c-2.3-11.8-4.6-23.6-7-35.4
			c-4.6-23.4-9.3-46.8-13.9-70.2c-5.3-26.7-10.5-53.5-15.7-80.2c-4.8-24.6-9.6-49.2-13.8-73.9c-1.1-6.4-1.9-12.8-2.1-19.2
			c0-0.5,0.1-1.1,0.1-1.5c1.1-0.6,2.1-0.5,3.2-0.4c2.4,0.4,4.8,0.9,7.1,1.9c5.3,2.3,10.4,5.3,15.5,8.1c0.1,0.1,0.2,0.2,0.4,0.4
			c0.1,0.6,0.3,1.3,0.4,2c0.8,6.2,1.6,12.3,2.4,18.5c0.6,4.5,0.9,9.1,1.8,13.6c0.8,4,1.9,7.9,3.8,11.5c2.4,4.4,5.9,7.3,10.5,8.4
			c2.1,0.5,4.4,0.9,6.6,1c7.2,0.4,14.3-0.8,21.4-1.6c4.6-0.6,9.2-1.1,13.9-1.7c4-0.5,7.9-0.8,11.9-1.4c4.4-0.7,8.7-2,12.7-4.1
			c7.4-3.8,12.6-9.7,15.5-18c1.5-4.2,2.3-8.5,2.5-12.9c0.6-8.5-0.1-17-1.1-25.4c-0.1-0.4,0-0.9,0-1.3c2.8-1,6.5-1.4,8.7-0.9
			c0.2,1.8,0.3,3.7,0.5,5.6c0.5,5.7,1.3,11.4,2.7,17c1.3,5.2,3.1,10.2,5.8,14.8c3.2,5.3,7.3,9.5,12.7,12.2
			c4.9,2.4,10.1,3.4,15.4,3.8c2.9,0.2,5.8-0.1,8.6-0.4c3-0.4,6-0.5,9.1-0.7c4.2-0.3,8.4-0.5,12.6-0.8c3.8-0.3,7.5-0.6,11.2-1
			c2.2-0.3,4.4-0.8,6.4-1.7c2.8-1.2,5.2-3,6.8-5.8c0.7-1.3,1.7-2,3.1-2.4c6.3-1.8,12.7-3.7,19-5.6c6-1.8,11.9-3.7,17.6-6.3
			c2.3-1.1,4.8-1.6,7.3-1.8c4.5-0.3,9-0.2,13.5,0.6c3.7,0.6,7.4,1.5,10.9,3.2c1.8,0.8,3.4,1.8,4.8,3.4c2,2.3,2.3,4.6,0.9,7.3
			c-0.8,1.6-2,2.9-3.3,4.1c-1.8,1.7-3.9,3.2-6,4.5c-5.4,3.4-11,6.1-16.7,8.7c-11.2,5.2-22.7,9.9-34.2,14.4
			c-11.5,4.4-23.1,8.7-34.9,12.4c-7.9,2.5-15.9,2.8-23.9,2.1c-3.6-0.3-7.2-1-10.8-1.6c-3.2-0.5-6.4-0.9-9.7-0.6
			c-3.1,0.2-5.9,1.4-8.1,3.8c-2.4,2.6-3.9,5.7-4.6,9.3c-0.4,2.3-0.2,4.5,0.4,6.8c0.4,1.5,1.1,2.9,2,4.2c1.8,2.8,4.3,4.8,7,6.5
			c3.3,2.1,6.9,3.5,10.6,4.6c7.4,2.2,14.9,3.1,22.5,3.3c4.7,0.1,9.4,0,14.2-0.3c5.5-0.5,11-1.2,16.5-2.1c7.4-1.3,14.8-3,22.1-4.8
			c6-1.5,12-2.8,17.9-4.2c3.2-0.7,6.4-1,9.7-0.9c1.1,0,2.2,0.1,3.3,0.5c3.2,1,4.7,3.9,3.8,7.4c-0.4,1.7-1.3,3.2-2.4,4.5
			c-1.4,1.7-2.9,3.1-4.6,4.4c-3.9,3-8.2,5.4-12.6,7.4c-13.1,6-26.7,10-41,11.5c-4.1,0.4-8.3,0.5-12.4,0.2
			c-6.4-0.5-12.8-1.6-19.1-2.9c-12-2.6-23.8-6-35.5-10c-8.1-2.8-16.1-5.7-23.9-9.4c-0.4-0.2-0.8-0.3-1.3-0.4
			c-0.2,0.5-0.4,0.9-0.5,1.3c-0.3,2.6-0.7,5.3-0.9,8c-0.5,9.2,0,18.4,1.4,27.5c1.6,10.3,3.9,20.5,6.8,30.5
			c2.1,7.2,4.4,14.2,6.9,21.2c0.2,0.6,0.6,1.3,0.4,2c-0.6,0.4-1.3,0.4-2,0.4c-3,0.1-6,0.2-9.1,0.7c-3.2,0.5-6.4,1.2-9.5,2.2
			c-1.9,0.6-2.1,0.9-2.2,3c0,0.3,0,0.6,0,0.9v36.4c0,0.5,0,1.1,0,1.7c0.1,1.4,0.5,1.7,1.8,1.9c0.4,0,0.7,0.1,1.1,0.1
			c2.8,0.1,5.6,0.3,8.4,0c3.7-0.3,7.3-0.8,10.9-1.6c2.4-0.6,4.7-1.3,6.9-2.5c1.4-0.7,2.3-1.8,3-3.3c1-2.2,1.3-4.5,1.4-6.9
			c0.2-4-0.1-8-0.6-12c-0.5-4.2-1.3-8.4-2-12.6c-0.1-0.6-0.1-1.2-0.2-1.9c1-0.8,2-1.6,2.9-2.3c4.5-3.3,9-6.6,13.5-9.9
			c0.6-0.4,1.1-1,2.1-0.9c0.2,0.4,0.4,0.8,0.5,1.2c0.1,0.7,0.1,1.4,0.1,2.1c0,14.8,0,29.6,0,44.4c0,0.5,0,1.1-0.1,1.7
			c0,0.3-0.1,0.6-0.2,0.9c-0.2,0.6-0.6,0.9-1.2,0.8c-0.5-0.1-1-0.3-1.5-0.5c-1.5-0.5-2.9-1.1-4.4-1.6c-0.4-0.1-0.8-0.4-1.2,0
			c0.6,1.8,17.5,36.7,19.2,39.4c12.1-2.4,23.9-5.9,35.4-10.3c23.2-8.9,44.7-21.4,64.3-37.3c19.8-16.1,36.8-35,51.1-56.7
			c14.1-21.5,24.9-44.8,32.3-69.8c7.5-25.4,11.1-51.5,10.9-78.2C961.3,311.4,859.2,197.5,728.5,194z M625.4,403.2
			c-0.2,0.2-0.5,0.4-0.8,0.5c-1.5,0.4-2.1,1.6-2.5,3c-0.4,1.5-0.5,2.9-0.4,4.4c0,1-0.3,1.5-0.8,1.4c-0.7-0.1-0.8-0.6-0.9-1.2
			c-0.2-0.9-0.3-1.9-0.6-2.8c-0.2-0.8-0.6-1.6-1-2.4c-0.5-0.9-1.2-1.6-2.3-1.6c-0.3,0-0.6-0.1-0.8-0.2c-0.4-0.1-0.5-0.9-0.2-1.2
			c0.2-0.1,0.4-0.3,0.6-0.4c1.5-0.5,2-1.8,2.2-3.3c0.2-1.1,0.3-2.3,0.4-3.5c0-0.4,0-0.8,0.1-1.2c0.1-0.2,0.4-0.5,0.6-0.6
			c0.2,0,0.6,0.2,0.7,0.4c0.2,0.6,0.3,1.2,0.5,1.8c0.3,1,0.6,2.1,1,3.1c0.6,1.3,1.5,2.3,3.1,2.2c0.3,0,0.6,0.1,0.8,0.2
			c0.2,0.1,0.3,0.3,0.4,0.5C625.5,402.8,625.5,403,625.4,403.2z M693.5,420.6c-0.4,1.8-1.1,3.4-2,4.9c-1.4,2.3-3.1,4.4-4.9,6.4
			c-2.7,3-5.6,5.8-8.8,8.2c-0.7,0.6-1.4,1.1-2.2,1.6c-0.5,0.3-1.1,0.5-1.7,0.6c-1.3,0.2-2.3-0.4-2.8-1.5c-0.5-1.1-0.2-2.5,0.7-3.4
			c0.2-0.2,0.5-0.4,0.7-0.5c4.3-2.9,8-6.5,11.3-10.5c1.2-1.4,2.2-3,3.2-4.5c0.4-0.6,0.6-1.3,0.8-1.9c0.1-0.2,0-0.4,0-0.8
			c-0.4,0-0.9-0.2-1.2-0.1c-0.7,0.2-1.4,0.6-2,0.9c-1.2,0.5-2.4,1.1-3.7,1.6c-5,1.7-8.2-2.7-7.3-7.3c0.2-1,0.6-2,1-2.9
			c1.6-3.4,3.8-6.3,6.4-9c0.7-0.7,1.5-1.2,2.6-1.2c1,0,1.9,0.5,2.3,1.5c0.4,1,0.4,2-0.3,2.9c-0.4,0.5-0.8,0.9-1.2,1.4
			c-1.7,1.9-3.2,3.9-4.5,6.1c-0.4,0.7-0.9,1.4-0.7,2.3c0.5,0.5,0.9,0.3,1.3,0.1c1.1-0.5,2.2-1,3.2-1.5c1.4-0.7,2.8-1,4.3-0.9
			C691.6,413.2,694.3,416.6,693.5,420.6z M761.9,374.9c-5.2,0.6-10.4,1.1-15.6,1.7c-3.6,0.4-7.2,0.7-10.8,1.1
			c-5.2,0.6-10.4,1.1-15.6,1.7c-3.5,0.4-7,0.7-10.6,1.1c-5.3,0.6-10.6,1.1-15.9,1.7c-3.5,0.4-7,0.7-10.6,1.1
			c-5.4,0.6-10.7,1.2-16.1,1.7c-3.5,0.4-7,0.7-10.6,1.1c-5.3,0.6-10.6,1.1-15.9,1.7c-3.5,0.4-7,0.8-10.6,1.1
			c-1.6,0.2-3.2,0.3-4.8,0.5c-1,0.1-1.9-0.1-2.8-0.4c-2.6-1-5.3-2.1-7.9-2.9c-7.2-2.4-14.4-4.7-21.6-7.1c-1.8-0.6-3.6-1-5.3-1.5
			c-0.3-0.1-0.5-0.3-0.9-0.4c0.1-0.6,0.1-1.3,0.2-1.9c2-10.9,5.5-21.2,11.2-30.6c6.8-11.2,15.4-20.5,26.6-26.8
			c6.1-3.4,12.6-5.9,19.2-7.8c6.4-1.9,12.9-3.2,19.5-4.2c0.3,0,0.5-0.1,0.8-0.2c-0.3-0.7-0.8-0.7-1.3-0.8c-4.6-1.4-9.3-2.4-14.1-3.2
			c-11.6-2-23.3-2.9-35.1-2.8c-4.6,0-9.1,0.5-13.7,0.7c-0.6,0-1.2,0-1.9,0c-0.1-0.5-0.2-0.9-0.1-1.4c0.6-3.2,1.9-6.1,3.8-8.7
			c0.8-1.1,2-1.9,3.2-2.5c2.1-1.1,4.2-1.8,6.4-2.5c2.5-0.8,5-1.5,7.5-2.3c0.8-0.2,1.5-0.5,2.3-1.1c-0.7-0.8-1.7-1-2.5-1.4
			c-0.9-0.4-1.8-0.8-2.6-1.2c-0.9-0.4-1.8-0.8-2.6-1.2c-0.9-0.4-1.8-0.8-2.6-1.2c-0.9-0.4-1.8-0.8-2.7-1.2c-0.9-0.4-1.8-0.8-2.7-1.2
			c-0.9-0.4-1.8-0.7-2.7-1.1c-0.9-0.3-1.7-0.7-2.6-1c0.1-0.2,0.1-0.3,0.1-0.4c2.3-0.9,4.5-2,6.9-2.4c8.9-1.5,17.8-1.8,26.7-1.2
			c21.8,1.5,42.1,8.2,60.7,20.6c5.3,3.6,10.4,7.6,14.7,12.4c1.3,1.5,2.6,3,3.8,4.6c0.8,1.2,1.8,1.7,3.1,2c4.8,1,9.5,2.3,14,4.2
			c2.9,1.2,5.7,2.5,8.5,4c5.2,2.8,9.7,6.5,13.7,11.1c5.1,5.9,9.6,12.4,13.6,19.2c4.7,8,8.8,16.4,12.4,25c0.2,0.5,0.4,1,0.6,1.5
			c0,0.1,0,0.3,0,0.6c-0.6,0.1-1.3,0.3-1.9,0.4C771.9,373.8,766.9,374.3,761.9,374.9z M797.2,411.6c-0.4,1.7-1.1,3.3-2,4.7
			c-1.1,1.6-2.2,3.2-3.4,4.7c-3.2,3.9-6.8,7.2-10.7,10.3c-0.8,0.6-1.7,1.3-2.6,1.7c-1.4,0.7-2.7,0.3-3.5-1c-0.8-1.2-0.5-2.8,0.6-3.8
			c0.3-0.3,0.7-0.5,1.1-0.8c4.7-3.4,8.8-7.4,12.4-12.1c1-1.3,2-2.7,2.5-4.4c0.2-0.8-0.2-1.3-0.9-1.1c-0.7,0.2-1.4,0.5-2.1,0.8
			c-1,0.5-2,1-3,1.4c-0.8,0.3-1.7,0.5-2.6,0.6c-3.4,0.3-5.8-2.2-5.8-5.8c0-1.4,0.4-2.6,0.9-3.9c1.7-3.9,4.1-7.1,7-9.9
			c0.4-0.4,0.8-0.7,1.3-0.9c1.1-0.4,2.3,0,3,1c0.6,0.9,0.7,2.4,0,3.3c-0.4,0.6-0.9,1.1-1.3,1.6c-1.6,1.7-3.1,3.6-4.2,5.7
			c-0.3,0.5-0.5,1.1-0.8,1.7c-0.1,0.3-0.1,0.6-0.1,1c1.1,0.3,1.8-0.3,2.5-0.6c1.4-0.6,2.7-1.2,4.1-1.7c1.2-0.4,2.5-0.4,3.7,0
			C796.4,405.2,797.9,408.2,797.2,411.6z M810,384.5c-0.1,0.1-0.3,0.2-0.4,0.2c-1.9,0.5-2.5,2-2.8,3.8c-0.2,1.2-0.1,2.3-0.2,3.5
			c0,0.4-0.1,0.8-0.2,1.1c0,0-0.1,0.1-0.4,0.3c-0.2-0.7-0.4-1.2-0.5-1.7c-0.4-1.9-1.5-3.4-2.5-4.9c-0.4-0.7-1.1-1.1-1.9-1.1
			c-0.3,0-0.6,0-0.9-0.1c-0.2-0.1-0.4-0.4-0.5-0.7c-0.1-0.2,0.1-0.4,0.2-0.6c0.1-0.2,0.3-0.3,0.6-0.4c1.3-0.4,1.8-1.6,2.1-2.8
			c0.2-1.1,0.3-2.3,0.5-3.5c0.1-0.5,0-1.1,0.1-1.6c0.1-0.2,0.4-0.5,0.6-0.5c0.2,0,0.6,0.2,0.7,0.4c0.2,0.5,0.3,1,0.4,1.6
			c0.3,1,0.5,2.1,1,3.1c0.6,1.4,1.6,2.5,3.2,2.3c0.1,0,0.3,0,0.4,0c0.4,0.1,0.7,0.3,0.7,0.8C810.4,384,810.2,384.3,810,384.5z"/>
		<path class="st1" d="M673.6,679.6c-0.2-0.4-0.4-0.8-0.5-1.2c-0.1-0.7-0.1-1.4-0.1-2.1c0-20.4,0-40.8,0-61.2c0-0.8,0-1.6,0.1-2.4
			c0.1-0.7,0.6-1.1,1.3-0.9c0.3,0.1,0.6,0.2,0.8,0.3c8.5,3.6,16.9,7.6,25.1,11.9c0.2,0.1,0.3,0.3,0.5,0.4c0.1,0.8-0.5,1.1-0.9,1.5
			c-1.2,1.1-1.7,2.5-1.6,4.2c0,0.9,0,1.7,0,2.6c-0.1,5.3-0.3,10.5-0.4,15.8c0,2,0,4.1,0,6.1c0,1.2,0.2,2.3,0.4,3.5
			c0.3,1.9,1.1,3.6,2.5,4.9c0.3,0.2,0.5,0.6,0.7,0.8c0.1,0.8-0.5,1-1,1.2c-2.4,1.4-4.7,2.9-7.2,4.2c-5.8,3.2-11.7,6.3-17.6,9.5
			C675.1,679.2,674.5,679.7,673.6,679.6z"/>
		<path class="st1" d="M649.3,366.5c-2.3-0.4-4.6-0.7-6.9-1.1c-2.4-0.3-4.7,0.1-7,0.6c-2.3,0.5-4.6,1.3-6.7,2.4
			c-2.1,1.1-4.1,2.6-5.9,4.1c-1.9,1.5-3.5,3.3-5.1,5.3c-1.5,1.9-2.4,4.2-3.6,6.6c-0.8-2.1-0.8-3.9-0.6-5.8c0.6-5.4,3.3-9.3,7.5-12.2
			c3.8-2.6,7.9-4,12.4-4.8c3.9-0.6,7.6-0.1,11.2,1.5c1.4,0.6,2.7,1.6,4,2.4C649,365.7,649.4,365.9,649.3,366.5z"/>
		<path class="st1" d="M768.7,365.5c-0.8-0.4-1.5-0.6-2.1-1c-2.5-1.3-5.1-2.2-7.7-3c-2.7-0.9-5.5-0.8-8.3-0.6
			c-3.3,0.2-6.6,0.9-9.6,2.3c-1.3,0.6-2.6,1.5-3.9,2.2c-0.4,0.2-0.7,0.5-1.4,0.9c1.1-3.4,2.7-5.9,5.1-7.9c2.2-1.8,4.8-2.9,7.5-3.2
			c3.5-0.5,7.1-0.3,10.5,0.9c4.2,1.5,7.4,4.4,9.7,8.4C768.6,364.8,768.6,365,768.7,365.5z"/>
		<path class="st1" d="M804.5,381.9c0.8,0.9,1.4,1.6,2.1,2.3c-0.4,0.7-0.7,1.4-1.2,2.3c-0.7-0.8-1.3-1.4-2-2.2
			C803.7,383.7,804,383,804.5,381.9z"/>
	</g>
	<text transform="matrix(0.9376 0 0 1 1041.6505 552.5284)" class="st1 st2 st3">$DUCK</text>
</g>
</svg>
